<svg width="254" height="242" viewBox="0 0 254 242" fill="none" xmlns="http://www.w3.org/2000/svg">
<path d="M138.393 44.6143L49.6562 93.3402L126.999 135.81L215.736 87.0843L138.393 44.6143Z" fill="#FEA02C"/>
<path d="M52.2344 195.026L127.054 236.11V135.808L52.2344 94.7236V195.026Z" fill="#FFC66C"/>
<path d="M218.608 186.108V91.2588L164.648 164.151L145.824 154.987L145.878 226.045L218.608 186.108Z" fill="#FFB954"/>
<path d="M141.365 129.367L170.683 158.683L248.86 115.756L219.542 86.4404L141.365 129.367Z" fill="#FEDA9B"/>
<path d="M18.3496 122.361L97.1672 165.639L127 135.807L48.1819 92.5283L18.3496 122.361Z" fill="#FEDA9B"/>
<path d="M218.607 85.5054L248.66 55.4563L171.121 12.8779L141.068 42.9309L218.607 85.5054Z" fill="#FEDA9B"/>
<path d="M21.4863 48.8161L50.1015 77.4293L127 35.2051L98.3844 6.5918L21.4863 48.8161Z" fill="#FEDA9B"/>
<path d="M225.614 85.5072L252.362 58.7593C253.465 57.6582 253.983 56.1005 253.763 54.5583C253.544 53.0161 252.61 51.6655 251.243 50.9147L186.097 15.1437C183.699 13.8279 188.055 21.8699 188.055 21.8699C188.055 21.8699 178.93 22.5123 181.329 23.8281L240.69 56.4218L217.735 79.3751L135.173 34.0393L158.126 11.086L181.329 23.8281C183.726 25.144 186.739 24.2693 188.055 21.8699C189.373 19.4724 188.496 16.4596 186.097 15.1437L159.635 0.611672C157.704 -0.448724 155.305 -0.106224 153.749 1.45147L126.999 28.2013L100.249 1.45147C98.6916 -0.106224 96.2922 -0.446789 94.363 0.611672L2.75485 50.9147C1.38872 51.6655 0.454106 53.0142 0.235447 54.5583C0.0148541 56.1005 0.533442 57.6582 1.63641 58.7593L28.3843 85.5072L1.63641 112.253C0.533442 113.356 0.0148541 114.912 0.235447 116.456C0.454106 117.998 1.38872 119.349 2.75485 120.098L30.4374 135.299V186.109C30.4374 187.919 31.4223 189.583 33.0071 190.453L124.615 240.755C125.358 241.163 126.179 241.366 126.999 241.366C127.82 241.366 128.64 241.163 129.383 240.755L220.991 190.453C222.576 189.583 223.561 187.919 223.561 186.109V135.299L251.243 120.1C252.61 119.349 253.544 117.998 253.763 116.456C253.983 114.914 253.465 113.356 252.362 112.255L225.614 85.5072ZM126.999 130.156L45.6835 85.5052L126.999 40.8525L208.315 85.5052L126.999 130.156ZM95.8742 11.086L118.826 34.0393L36.2637 79.3751L13.3104 56.4218L95.8742 11.086ZM36.2676 91.6373L118.829 136.973L95.8742 159.928L13.3104 114.593L36.2676 91.6373ZM213.654 183.18L131.953 228.041V147.767C131.953 145.031 129.735 142.813 126.999 142.813C124.263 142.813 122.045 145.031 122.045 147.767V228.041L40.3447 183.18V140.741L94.363 170.403C95.1118 170.813 95.9323 171.014 96.745 171.014C98.0279 171.014 99.2973 170.515 100.249 169.563L126.999 142.813L153.749 169.563C154.701 170.517 155.97 171.014 157.253 171.014C158.066 171.014 158.886 170.813 159.635 170.403L213.654 140.741V183.18ZM158.126 159.928L135.171 136.971L217.733 91.6373L240.69 114.591L158.126 159.928Z" fill="black"/>
<path d="M127.001 156.004C125.698 156.004 124.419 156.532 123.498 157.455C122.577 158.38 122.047 159.653 122.047 160.958C122.047 162.264 122.577 163.537 123.498 164.464C124.419 165.385 125.698 165.911 127.001 165.911C128.303 165.911 129.582 165.385 130.503 164.464C131.424 163.537 131.954 162.264 131.954 160.958C131.954 159.653 131.424 158.38 130.503 157.455C129.582 156.532 128.303 156.004 127.001 156.004Z" fill="black"/>
</svg>
